<?xml version="1.0" standalone="no"?>
<!DOCTYPE svg PUBLIC "-//W3C//DTD SVG 20010904//EN"
 "http://www.w3.org/TR/2001/REC-SVG-20010904/DTD/svg10.dtd">
<svg version="1.0" xmlns="http://www.w3.org/2000/svg"
 width="450.000000pt" height="450.000000pt" viewBox="0 0 450.000000 450.000000"
 preserveAspectRatio="xMidYMid meet">

<g transform="translate(0.000000,450.000000) scale(0.100000,-0.100000)"
fill="#000000" stroke="none">
<path d="M434 4066 l-34 -34 0 -282 0 -282 34 -34 34 -34 281 0 281 0 32 29
33 29 3 287 3 286 -35 35 -34 34 -282 0 -282 0 -34 -34z m533 -101 l34 -34 -3
-186 -3 -187 -33 -29 -32 -29 -181 0 -181 0 -34 34 -34 34 0 182 0 182 34 34
34 34 182 0 182 0 35 -35z"/>
<path d="M634 3866 c-33 -33 -34 -36 -34 -116 0 -80 1 -83 34 -116 33 -33 36
-34 116 -34 80 0 83 1 116 34 33 33 34 36 34 116 0 80 -1 83 -34 116 -33 33
-36 34 -116 34 -80 0 -83 -1 -116 -34z"/>
<path d="M1300 4050 l0 -50 100 0 100 0 0 -50 0 -50 50 0 50 0 0 50 0 50 100
0 100 0 0 50 0 50 -250 0 -250 0 0 -50z"/>
<path d="M1900 4000 l0 -100 -50 0 -50 0 0 -50 0 -50 50 0 50 0 0 -50 0 -50
-150 0 -150 0 0 50 0 50 -50 0 -50 0 0 -50 0 -50 -50 0 -50 0 0 -50 0 -50 50
0 50 0 0 -50 0 -50 -50 0 -50 0 0 -150 0 -150 -100 0 -100 0 0 -50 0 -50 -100
0 -100 0 0 50 0 50 50 0 50 0 0 50 0 50 -250 0 -250 0 0 -50 0 -50 150 0 150
0 0 -50 0 -50 -50 0 -50 0 0 -200 0 -200 50 0 50 0 0 100 0 100 50 0 50 0 0
-50 0 -50 50 0 50 0 0 -50 0 -50 -50 0 -50 0 0 -50 0 -50 -50 0 -50 0 0 -100
0 -100 -100 0 -100 0 0 100 0 100 -50 0 -50 0 0 50 0 50 50 0 50 0 0 100 0
100 -50 0 -50 0 0 50 0 50 50 0 50 0 0 50 0 50 -50 0 -50 0 0 -50 0 -50 -100
0 -100 0 0 -200 0 -200 50 0 50 0 0 -100 0 -100 -50 0 -50 0 0 -50 0 -50 50 0
50 0 0 50 0 50 100 0 100 0 0 -150 0 -150 100 0 100 0 0 -50 0 -50 -150 0
-150 0 0 50 0 50 -50 0 -50 0 0 50 0 50 -50 0 -50 0 0 -100 0 -100 100 0 100
0 0 -50 0 -50 50 0 50 0 0 -50 0 -50 -150 0 -150 0 0 -50 0 -50 100 0 100 0 0
-50 0 -50 -100 0 -100 0 0 -200 0 -200 50 0 50 0 0 150 0 150 150 0 150 0 0
-50 0 -50 -100 0 -100 0 0 -100 0 -100 100 0 100 0 0 50 0 50 50 0 50 0 0 -50
0 -50 100 0 100 0 0 50 0 50 50 0 50 0 0 -100 0 -100 50 0 50 0 0 50 0 50 50
0 50 0 0 -100 0 -100 50 0 50 0 0 -100 0 -100 -50 0 -50 0 0 50 0 50 -50 0
-50 0 0 50 0 50 -50 0 -50 0 0 -200 0 -200 50 0 50 0 0 -50 0 -50 -50 0 -50 0
0 -50 0 -50 250 0 250 0 0 50 0 50 -50 0 -50 0 0 50 0 50 -50 0 -50 0 0 100 0
100 100 0 100 0 0 100 0 100 -50 0 -50 0 0 50 0 50 50 0 50 0 0 50 0 50 -50 0
-50 0 0 -50 0 -50 -50 0 -50 0 0 50 0 50 -50 0 -50 0 0 50 0 50 50 0 50 0 0
50 0 50 50 0 50 0 0 -50 0 -50 50 0 50 0 0 50 0 50 100 0 100 0 0 50 0 50 100
0 100 0 0 50 0 50 -100 0 -100 0 0 -50 0 -50 -50 0 -50 0 0 100 0 100 50 0 50
0 0 50 0 50 -100 0 -100 0 0 50 0 50 200 0 200 0 0 50 0 50 -50 0 -50 0 0 100
0 100 50 0 50 0 0 -50 0 -50 100 0 100 0 0 -50 0 -50 -50 0 -50 0 0 -100 0
-100 50 0 50 0 0 -50 0 -50 -50 0 -50 0 0 -50 0 -50 50 0 50 0 0 50 0 50 50 0
50 0 0 -50 0 -50 50 0 50 0 0 -50 0 -50 -50 0 -50 0 0 -50 0 -50 50 0 50 0 0
-50 0 -50 50 0 50 0 0 -50 0 -50 -150 0 -150 0 0 50 0 50 -50 0 -50 0 0 -50 0
-50 -50 0 -50 0 0 100 0 100 -50 0 -50 0 0 -100 0 -100 -100 0 -100 0 0 -150
0 -150 50 0 50 0 0 -100 0 -100 -100 0 -100 0 0 -50 0 -50 50 0 50 0 0 -100 0
-100 100 0 100 0 0 100 0 100 50 0 50 0 0 -50 0 -50 100 0 100 0 0 -50 0 -50
100 0 100 0 0 50 0 50 50 0 50 0 0 -50 0 -50 50 0 50 0 0 200 0 200 50 0 50 0
0 -50 0 -50 50 0 50 0 0 -50 0 -50 -50 0 -50 0 0 -100 0 -100 100 0 100 0 0
50 0 50 100 0 100 0 0 -50 0 -50 50 0 50 0 0 50 0 50 50 0 50 0 0 50 0 50 -50
0 -50 0 0 100 0 100 50 0 50 0 0 -50 0 -50 50 0 50 0 0 50 0 50 50 0 50 0 0
-50 0 -50 50 0 50 0 0 -50 0 -50 -50 0 -50 0 0 -100 0 -100 100 0 100 0 0 50
0 50 50 0 50 0 0 -50 0 -50 100 0 100 0 0 150 0 150 -50 0 -50 0 0 -100 0
-100 -50 0 -50 0 0 150 0 150 50 0 50 0 0 50 0 50 -100 0 -100 0 0 50 0 50
100 0 100 0 0 50 0 50 50 0 50 0 0 100 0 100 -50 0 -50 0 0 50 0 50 50 0 50 0
0 50 0 50 -100 0 -100 0 0 -100 0 -100 50 0 50 0 0 -100 0 -100 -100 0 -100 0
0 50 0 50 -50 0 -50 0 0 50 0 50 50 0 50 0 0 50 0 50 -50 0 -50 0 0 -50 0 -50
-150 0 -150 0 0 50 0 50 100 0 100 0 0 50 0 50 -50 0 -50 0 0 50 0 50 50 0 50
0 0 50 0 50 50 0 50 0 0 50 0 50 50 0 50 0 0 150 0 150 50 0 50 0 0 50 0 50
50 0 50 0 0 -50 0 -50 50 0 50 0 0 100 0 100 -50 0 -50 0 0 100 0 100 -100 0
-100 0 0 -100 0 -100 -50 0 -50 0 0 50 0 50 -150 0 -150 0 0 50 0 50 -50 0
-50 0 0 -50 0 -50 -50 0 -50 0 0 100 0 100 100 0 100 0 0 100 0 100 50 0 50 0
0 -150 0 -150 100 0 100 0 0 50 0 50 50 0 50 0 0 50 0 50 -100 0 -100 0 0 50
0 50 50 0 50 0 0 50 0 50 50 0 50 0 0 50 0 50 -50 0 -50 0 0 -50 0 -50 -150 0
-150 0 0 50 0 50 100 0 100 0 0 50 0 50 -50 0 -50 0 0 50 0 50 100 0 100 0 0
-50 0 -50 50 0 50 0 0 50 0 50 50 0 50 0 0 -100 0 -100 50 0 50 0 0 -50 0 -50
-50 0 -50 0 0 -50 0 -50 50 0 50 0 0 -50 0 -50 -50 0 -50 0 0 -50 0 -50 50 0
50 0 0 50 0 50 50 0 50 0 0 200 0 200 -50 0 -50 0 0 50 0 50 -50 0 -50 0 0 50
0 50 -250 0 -250 0 0 -50 0 -50 -50 0 -50 0 0 50 0 50 -100 0 -100 0 0 100 0
100 50 0 50 0 0 -50 0 -50 50 0 50 0 0 150 0 150 -50 0 -50 0 0 -50 0 -50 -50
0 -50 0 0 -50 0 -50 -50 0 -50 0 0 -100 0 -100 50 0 50 0 0 -50 0 -50 -50 0
-50 0 0 -50 0 -50 -150 0 -150 0 0 -100 0 -100 -50 0 -50 0 0 50 0 50 -50 0
-50 0 0 50 0 50 50 0 50 0 0 50 0 50 150 0 150 0 0 50 0 50 -200 0 -200 0 0
100 0 100 -50 0 -50 0 0 -50 0 -50 -50 0 -50 0 0 100 0 100 50 0 50 0 0 50 0
50 50 0 50 0 0 50 0 50 50 0 50 0 0 -200 0 -200 50 0 50 0 0 100 0 100 100 0
100 0 0 50 0 50 100 0 100 0 0 150 0 150 100 0 100 0 0 50 0 50 -100 0 -100 0
0 -50 0 -50 -50 0 -50 0 0 -100 0 -100 -50 0 -50 0 0 50 0 50 -50 0 -50 0 0
-100 0 -100 -50 0 -50 0 0 200 0 200 -50 0 -50 0 0 -100 0 -100 -100 0 -100 0
0 50 0 50 50 0 50 0 0 50 0 50 -50 0 -50 0 0 -50 0 -50 -50 0 -50 0 0 50 0 50
-50 0 -50 0 0 -50 0 -50 -50 0 -50 0 0 50 0 50 -100 0 -100 0 0 -100z m200
-50 l0 -50 50 0 50 0 0 -50 0 -50 -50 0 -50 0 0 -50 0 -50 100 0 100 0 0 -50
0 -50 -50 0 -50 0 0 -100 0 -100 50 0 50 0 0 -50 0 -50 -50 0 -50 0 0 -50 0
-50 150 0 150 0 0 -50 0 -50 -50 0 -50 0 0 -50 0 -50 50 0 50 0 0 -50 0 -50
50 0 50 0 0 -50 0 -50 50 0 50 0 0 -50 0 -50 50 0 50 0 0 50 0 50 50 0 50 0 0
-150 0 -150 50 0 50 0 0 50 0 50 50 0 50 0 0 -50 0 -50 -50 0 -50 0 0 -50 0
-50 50 0 50 0 0 -50 0 -50 100 0 100 0 0 50 0 50 50 0 50 0 0 -50 0 -50 -50 0
-50 0 0 -50 0 -50 -50 0 -50 0 0 -50 0 -50 50 0 50 0 0 -50 0 -50 -50 0 -50 0
0 -50 0 -50 100 0 100 0 0 50 0 50 50 0 50 0 0 50 0 50 -50 0 -50 0 0 50 0 50
50 0 50 0 0 50 0 50 50 0 50 0 0 -50 0 -50 -50 0 -50 0 0 -50 0 -50 50 0 50 0
0 -50 0 -50 50 0 50 0 0 -50 0 -50 -150 0 -150 0 0 -50 0 -50 -100 0 -100 0 0
-50 0 -50 -50 0 -50 0 0 -50 0 -50 -100 0 -100 0 0 -50 0 -50 -100 0 -100 0 0
-100 0 -100 -50 0 -50 0 0 50 0 50 -50 0 -50 0 0 50 0 50 50 0 50 0 0 50 0 50
50 0 50 0 0 50 0 50 -150 0 -150 0 0 50 0 50 -50 0 -50 0 0 50 0 50 50 0 50 0
0 -50 0 -50 50 0 50 0 0 100 0 100 -50 0 -50 0 0 50 0 50 100 0 100 0 0 -50 0
-50 50 0 50 0 0 200 0 200 -50 0 -50 0 0 -100 0 -100 -100 0 -100 0 0 50 0 50
-50 0 -50 0 0 -50 0 -50 -50 0 -50 0 0 50 0 50 50 0 50 0 0 50 0 50 -100 0
-100 0 0 -50 0 -50 -50 0 -50 0 0 50 0 50 50 0 50 0 0 50 0 50 -50 0 -50 0 0
50 0 50 50 0 50 0 0 -50 0 -50 100 0 100 0 0 -50 0 -50 50 0 50 0 0 100 0 100
-100 0 -100 0 0 50 0 50 100 0 100 0 0 50 0 50 -50 0 -50 0 0 50 0 50 -50 0
-50 0 0 -50 0 -50 -50 0 -50 0 0 -50 0 -50 -50 0 -50 0 0 50 0 50 -50 0 -50 0
0 -50 0 -50 -50 0 -50 0 0 50 0 50 -50 0 -50 0 0 50 0 50 -150 0 -150 0 0
-150 0 -150 50 0 50 0 0 100 0 100 50 0 50 0 0 -100 0 -100 100 0 100 0 0
-150 0 -150 50 0 50 0 0 -150 0 -150 -100 0 -100 0 0 -50 0 -50 -50 0 -50 0 0
-50 0 -50 50 0 50 0 0 -50 0 -50 -50 0 -50 0 0 -50 0 -50 50 0 50 0 0 -50 0
-50 -50 0 -50 0 0 50 0 50 -50 0 -50 0 0 -100 0 -100 -50 0 -50 0 0 -50 0 -50
-100 0 -100 0 0 50 0 50 -50 0 -50 0 0 -50 0 -50 -100 0 -100 0 0 50 0 50 100
0 100 0 0 50 0 50 -150 0 -150 0 0 100 0 100 -50 0 -50 0 0 50 0 50 50 0 50 0
0 -50 0 -50 50 0 50 0 0 150 0 150 100 0 100 0 0 -50 0 -50 100 0 100 0 0 -50
0 -50 50 0 50 0 0 50 0 50 100 0 100 0 0 100 0 100 100 0 100 0 0 100 0 100
-50 0 -50 0 0 -50 0 -50 -100 0 -100 0 0 -100 0 -100 -50 0 -50 0 0 100 0 100
50 0 50 0 0 50 0 50 -50 0 -50 0 0 50 0 50 -100 0 -100 0 0 -100 0 -100 50 0
50 0 0 -50 0 -50 -200 0 -200 0 0 50 0 50 100 0 100 0 0 50 0 50 -100 0 -100
0 0 50 0 50 100 0 100 0 0 50 0 50 -50 0 -50 0 0 50 0 50 50 0 50 0 0 50 0 50
100 0 100 0 0 100 0 100 -50 0 -50 0 0 -50 0 -50 -50 0 -50 0 0 50 0 50 -50 0
-50 0 0 50 0 50 -50 0 -50 0 0 50 0 50 50 0 50 0 0 -50 0 -50 50 0 50 0 0 -50
0 -50 50 0 50 0 0 50 0 50 100 0 100 0 0 100 0 100 50 0 50 0 0 50 0 50 50 0
50 0 0 50 0 50 -50 0 -50 0 0 50 0 50 50 0 50 0 0 50 0 50 -50 0 -50 0 0 50 0
50 50 0 50 0 0 -50 0 -50 200 0 200 0 0 100 0 100 -50 0 -50 0 0 50 0 50 50 0
50 0 0 50 0 50 50 0 50 0 0 -50z m1200 -800 l0 -50 -50 0 -50 0 0 50 0 50 50
0 50 0 0 -50z m-200 -150 l0 -100 -150 0 -150 0 0 50 0 50 100 0 100 0 0 50 0
50 50 0 50 0 0 -100z m200 -100 l0 -100 -50 0 -50 0 0 -50 0 -50 -100 0 -100
0 0 50 0 50 100 0 100 0 0 100 0 100 50 0 50 0 0 -100z m-2700 -100 l0 -100
-50 0 -50 0 0 100 0 100 50 0 50 0 0 -100z m3200 -650 l0 -50 -50 0 -50 0 0
50 0 50 50 0 50 0 0 -50z m-400 -500 l0 -50 -50 0 -50 0 0 -50 0 -50 -50 0
-50 0 0 50 0 50 50 0 50 0 0 50 0 50 50 0 50 0 0 -50z m-400 -300 l0 -50 -100
0 -100 0 0 50 0 50 100 0 100 0 0 -50z m300 0 l0 -50 -50 0 -50 0 0 50 0 50
50 0 50 0 0 -50z m-1200 -200 l0 -50 -50 0 -50 0 0 50 0 50 50 0 50 0 0 -50z
m200 0 l0 -50 100 0 100 0 0 -50 0 -50 -50 0 -50 0 0 -50 0 -50 50 0 50 0 0
-50 0 -50 50 0 50 0 0 50 0 50 50 0 50 0 0 -50 0 -50 -50 0 -50 0 0 -100 0
-100 -100 0 -100 0 0 50 0 50 -50 0 -50 0 0 -50 0 -50 -50 0 -50 0 0 50 0 50
50 0 50 0 0 50 0 50 -100 0 -100 0 0 -50 0 -50 -50 0 -50 0 0 50 0 50 50 0 50
0 0 50 0 50 -50 0 -50 0 0 50 0 50 50 0 50 0 0 -50 0 -50 100 0 100 0 0 50 0
50 -50 0 -50 0 0 100 0 100 50 0 50 0 0 -50z m400 0 l0 -50 50 0 50 0 0 50 0
50 50 0 50 0 0 -50 0 -50 -50 0 -50 0 0 -50 0 -50 50 0 50 0 0 -50 0 -50 50 0
50 0 0 50 0 50 50 0 50 0 0 50 0 50 -50 0 -50 0 0 50 0 50 50 0 50 0 0 -50 0
-50 50 0 50 0 0 -100 0 -100 -100 0 -100 0 0 -50 0 -50 50 0 50 0 0 -50 0 -50
50 0 50 0 0 -50 0 -50 50 0 50 0 0 -50 0 -50 -50 0 -50 0 0 50 0 50 -100 0
-100 0 0 -50 0 -50 -50 0 -50 0 0 50 0 50 50 0 50 0 0 100 0 100 -100 0 -100
0 0 100 0 100 -100 0 -100 0 0 100 0 100 50 0 50 0 0 -50z m900 -100 l0 -150
-150 0 -150 0 0 150 0 150 150 0 150 0 0 -150z m200 0 l0 -50 -50 0 -50 0 0
50 0 50 50 0 50 0 0 -50z m0 -250 l0 -100 -50 0 -50 0 0 100 0 100 50 0 50 0
0 -100z m-2400 -150 l0 -50 -50 0 -50 0 0 50 0 50 50 0 50 0 0 -50z m2400
-100 l0 -50 -50 0 -50 0 0 50 0 50 50 0 50 0 0 -50z"/>
<path d="M2000 3850 l0 -50 50 0 50 0 0 50 0 50 -50 0 -50 0 0 -50z"/>
<path d="M1600 3450 l0 -50 50 0 50 0 0 50 0 50 -50 0 -50 0 0 -50z"/>
<path d="M1800 3400 l0 -100 50 0 50 0 0 -100 0 -100 100 0 100 0 0 50 0 50
-50 0 -50 0 0 50 0 50 -50 0 -50 0 0 100 0 100 -50 0 -50 0 0 -100z"/>
<path d="M2000 3450 l0 -50 50 0 50 0 0 50 0 50 -50 0 -50 0 0 -50z"/>
<path d="M1600 3150 l0 -50 100 0 100 0 0 50 0 50 -100 0 -100 0 0 -50z"/>
<path d="M2200 3050 l0 -50 50 0 50 0 0 50 0 50 -50 0 -50 0 0 -50z"/>
<path d="M2000 2900 l0 -100 50 0 50 0 0 100 0 100 -50 0 -50 0 0 -100z"/>
<path d="M1800 2850 l0 -50 50 0 50 0 0 50 0 50 -50 0 -50 0 0 -50z"/>
<path d="M2500 2750 l0 -50 -50 0 -50 0 0 -50 0 -50 50 0 50 0 0 -100 0 -100
-50 0 -50 0 0 -50 0 -50 50 0 50 0 0 50 0 50 50 0 50 0 0 50 0 50 50 0 50 0 0
-50 0 -50 50 0 50 0 0 -50 0 -50 50 0 50 0 0 -50 0 -50 -50 0 -50 0 0 -100 0
-100 -50 0 -50 0 0 -50 0 -50 -50 0 -50 0 0 -50 0 -50 50 0 50 0 0 -50 0 -50
50 0 50 0 0 -50 0 -50 50 0 50 0 0 100 0 100 -100 0 -100 0 0 50 0 50 50 0 50
0 0 50 0 50 150 0 150 0 0 150 0 150 -50 0 -50 0 0 50 0 50 -100 0 -100 0 0
100 0 100 -100 0 -100 0 0 100 0 100 -50 0 -50 0 0 -50z m500 -600 l0 -50 -50
0 -50 0 0 50 0 50 50 0 50 0 0 -50z"/>
<path d="M1300 2550 l0 -50 50 0 50 0 0 -50 0 -50 50 0 50 0 0 50 0 50 50 0
50 0 0 -50 0 -50 50 0 50 0 0 50 0 50 -50 0 -50 0 0 50 0 50 -50 0 -50 0 0
-50 0 -50 -50 0 -50 0 0 50 0 50 -50 0 -50 0 0 -50z"/>
<path d="M1000 1850 l0 -50 50 0 50 0 0 50 0 50 -50 0 -50 0 0 -50z"/>
<path d="M3100 1850 l0 -50 -50 0 -50 0 0 -50 0 -50 50 0 50 0 0 50 0 50 50 0
50 0 0 50 0 50 -50 0 -50 0 0 -50z"/>
<path d="M1200 1750 l0 -50 50 0 50 0 0 -150 0 -150 50 0 50 0 0 150 0 150 50
0 50 0 0 50 0 50 -50 0 -50 0 0 -50 0 -50 -50 0 -50 0 0 50 0 50 -50 0 -50 0
0 -50z"/>
<path d="M1000 1650 l0 -50 50 0 50 0 0 50 0 50 -50 0 -50 0 0 -50z"/>
<path d="M2400 750 l0 -50 50 0 50 0 0 50 0 50 -50 0 -50 0 0 -50z"/>
<path d="M3400 1050 l0 -50 50 0 50 0 0 50 0 50 -50 0 -50 0 0 -50z"/>
<path d="M2800 4050 l0 -50 50 0 50 0 0 50 0 50 -50 0 -50 0 0 -50z"/>
<path d="M3434 4066 l-34 -34 0 -282 0 -282 34 -34 34 -34 282 0 282 0 34 34
34 34 0 282 0 282 -34 34 -34 34 -282 0 -282 0 -34 -34z m533 -101 l34 -34 -3
-186 -3 -187 -33 -29 -32 -29 -181 0 -181 0 -34 34 -34 34 0 182 0 182 34 34
34 34 182 0 182 0 35 -35z"/>
<path d="M3634 3866 c-33 -33 -34 -36 -34 -116 0 -80 1 -83 34 -116 33 -33 36
-34 115 -34 75 0 83 2 113 29 32 28 33 33 37 115 l3 86 -35 35 c-34 34 -37 35
-117 35 -80 0 -83 -1 -116 -34z"/>
<path d="M1200 3600 l0 -300 50 0 50 0 0 250 0 250 50 0 50 0 0 50 0 50 -100
0 -100 0 0 -300z"/>
<path d="M3200 3850 l0 -50 50 0 50 0 0 50 0 50 -50 0 -50 0 0 -50z"/>
<path d="M2800 3450 l0 -50 50 0 50 0 0 50 0 50 -50 0 -50 0 0 -50z"/>
<path d="M400 3200 l0 -100 50 0 50 0 0 100 0 100 -50 0 -50 0 0 -100z"/>
<path d="M3900 1950 l0 -50 50 0 50 0 0 -50 0 -50 -50 0 -50 0 0 -50 0 -50
-50 0 -50 0 0 -50 0 -50 -50 0 -50 0 0 -50 0 -50 50 0 50 0 0 50 0 50 50 0 50
0 0 50 0 50 50 0 50 0 0 -50 0 -50 50 0 50 0 0 200 0 200 -100 0 -100 0 0 -50z"/>
<path d="M2000 1750 l0 -50 50 0 50 0 0 50 0 50 -50 0 -50 0 0 -50z"/>
<path d="M2200 1450 l0 -50 50 0 50 0 0 50 0 50 -50 0 -50 0 0 -50z"/>
<path d="M434 1066 l-34 -34 0 -282 0 -282 34 -34 34 -34 281 0 281 0 32 29
33 29 3 287 3 286 -35 35 -34 34 -282 0 -282 0 -34 -34z m533 -101 l34 -34 -3
-186 -3 -187 -33 -29 -32 -29 -181 0 -181 0 -34 34 -34 34 0 182 0 182 34 34
34 34 182 0 182 0 35 -35z"/>
<path d="M634 866 c-33 -33 -34 -36 -34 -116 0 -80 1 -83 34 -116 33 -33 36
-34 116 -34 80 0 83 1 116 34 33 33 34 36 34 116 0 80 -1 83 -34 116 -33 33
-36 34 -116 34 -80 0 -83 -1 -116 -34z"/>
</g>
</svg>
